<mxfile host="app.diagrams.net" modified="2023-08-27T00:49:10.704Z" agent="Mozilla/5.0 (Macintosh; Intel Mac OS X 10_15_7) AppleWebKit/537.36 (KHTML, like Gecko) Chrome/116.0.0.0 Safari/537.36" etag="SGOq48ar-xWfpLNvMISS" version="21.6.9" type="github">
  <diagram id="3228e29e-7158-1315-38df-8450db1d8a1d" name="Page-1">
    <mxGraphModel dx="2375" dy="-1024" grid="0" gridSize="10" guides="1" tooltips="1" connect="1" arrows="1" fold="1" page="1" pageScale="1" pageWidth="1400" pageHeight="600" background="#EFF1F3" math="0" shadow="0">
      <root>
        <mxCell id="0" />
        <mxCell id="1" parent="0" />
        <mxCell id="taJE9zPfQFt8-4Tq1CJN-1" value="&lt;font style=&quot;font-size: 30px;&quot; color=&quot;#4a919b&quot;&gt;客户端&lt;/font&gt;" style="text;html=1;strokeColor=none;fillColor=none;align=center;verticalAlign=middle;whiteSpace=wrap;rounded=0;fontSize=22;" parent="1" vertex="1">
          <mxGeometry x="204.24" y="2617.77" width="106.52" height="20" as="geometry" />
        </mxCell>
        <mxCell id="taJE9zPfQFt8-4Tq1CJN-2" value="&lt;font color=&quot;#4a919b&quot; style=&quot;font-size: 30px;&quot;&gt;服务端&lt;/font&gt;" style="text;html=1;strokeColor=none;fillColor=none;align=center;verticalAlign=middle;whiteSpace=wrap;rounded=0;fontSize=22;" parent="1" vertex="1">
          <mxGeometry x="1052.25" y="2617.77" width="179" height="20" as="geometry" />
        </mxCell>
        <mxCell id="taJE9zPfQFt8-4Tq1CJN-3" value="" style="shape=image;verticalLabelPosition=bottom;verticalAlign=top;imageAspect=0;aspect=fixed;image=data:image/svg+xml,PHN2ZyB4bWxuczp4bGluaz0iaHR0cDovL3d3dy53My5vcmcvMTk5OS94bGluayIgeG1sbnM9Imh0dHA6Ly93d3cudzMub3JnLzIwMDAvc3ZnIiBoZWlnaHQ9IjIwMCIgd2lkdGg9IjIwMCIgdmVyc2lvbj0iMS4xIiB2aWV3Qm94PSIwIDAgMTAyNCAxMDI0IiBjbGFzcz0iaWNvbiI+PGRlZnM+PHN0eWxlIHR5cGU9InRleHQvY3NzIj5AZm9udC1mYWNlIHsgZm9udC1mYW1pbHk6IGZlZWRiYWNrLWljb25mb250OyBzcmM6IHVybCgiLy9hdC5hbGljZG4uY29tL3QvZm9udF8xMDMxMTU4X3U2OXc4eWh4ZHUud29mZjI/dD0xNjMwMDMzNzU5OTQ0IikgZm9ybWF0KCJ3b2ZmMiIpLCB1cmwoIi8vYXQuYWxpY2RuLmNvbS90L2ZvbnRfMTAzMTE1OF91Njl3OHloeGR1LndvZmY/dD0xNjMwMDMzNzU5OTQ0IikgZm9ybWF0KCJ3b2ZmIiksIHVybCgiLy9hdC5hbGljZG4uY29tL3QvZm9udF8xMDMxMTU4X3U2OXc4eWh4ZHUudHRmP3Q9MTYzMDAzMzc1OTk0NCIpIGZvcm1hdCgidHJ1ZXR5cGUiKTsgfSYjeGE7PC9zdHlsZT48L2RlZnM+PHBhdGggZmlsbD0iIzRBOTE5QiIgZD0iTTg0Mi4zOTQ1OTUgNzk5LjczMzIzNyA2NDAuOTczMDc2IDc5OS43MzMyMzcgNjQwLjk3MzA3NiA5MTQuODI1NTA4bDU3LjU0OTAwNSAwYzE1LjkwMzg1MyAwIDI4Ljc3NDUwMyAxMi44NjkwOTkgMjguNzc0NTAzIDI4Ljc3MzMyNCAwIDE1LjkwMzIwMi0xMi44NzA2NDkgMjguNzcyMy0yOC43NzQ1MDMgMjguNzcyM0wzNTMuMjI4MDUgOTcyLjM3MTEzMmMtMTUuOTA0ODc3IDAtMjguNzc0NTAzLTEyLjg2OTA5OS0yOC43NzQ1MDMtMjguNzcyMyAwLTE1LjkwNDIyNSAxMi44Njk2MjYtMjguNzczMzI0IDI4Ljc3NDUwMy0yOC43NzMzMjRsNTcuNTQ5MDA1IDBMNDEwLjc3NzA1NSA3OTkuNzMzMjM3IDE4MC41ODEwMzQgNzk5LjczMzIzN2MtNjMuNTYyMTk5IDAtMTE1LjA5ODAxMS01MS41MzM3LTExNS4wOTgwMTEtMTE1LjA5MzI5NUw2NS40ODMwMjMgMTY2LjcyMDExNmMwLTYzLjU1OTU5NSA1MS41MzU4MTItMTE1LjA5MzI5NSAxMTUuMDk4MDExLTExNS4wOTMyOTVsNjYxLjgxMjUzNyAwYzYzLjU2MTE3NiAwIDExNS4wOTgwMTEgNTEuNTMzNyAxMTUuMDk4MDExIDExNS4wOTMyOTVsMCA1MTcuOTE5ODI2Qzk1Ny40OTE1ODIgNzQ4LjE5ODUxMyA5MDUuOTU1NzcgNzk5LjczMzIzNyA4NDIuMzk0NTk1IDc5OS43MzMyMzd6TTU4My40MjQwNzEgOTE0LjgyNTUwOCA1ODMuNDI0MDcxIDc5OS43MzMyMzcgNDY4LjMyNjA2IDc5OS43MzMyMzcgNDY4LjMyNjA2IDkxNC44MjU1MDggNTgzLjQyNDA3MSA5MTQuODI1NTA4ek04OTkuOTQyNTc3IDE2Ni43MjAxMTZjMC0zMS43Nzk3OTctMjUuNzY3OTA2LTU3LjU0NjY0Ny01Ny41NDc5ODItNTcuNTQ2NjQ3TDE4MC41ODEwMzQgMTA5LjE3MzQ2OGMtMzEuNzgxMDk5IDAtNTcuNTQ5MDA1IDI1Ljc2Njg1LTU3LjU0OTAwNSA1Ny41NDY2NDdsMCA0MDIuODI2NTMyTDg5OS45NDI1NzcgNTY5LjU0NjY0NyA4OTkuOTQyNTc3IDE2Ni43MjAxMTZ6TTg5OS45NDI1NzcgNjI3LjA5MzI5NSAxMjMuMDMzMDUyIDYyNy4wOTMyOTVsMCA1Ny41NDY2NDdjMCAzMS43Nzk3OTcgMjUuNzY3OTA2IDU3LjU0NTYyNCA1Ny41NDkwMDUgNTcuNTQ1NjI0bDY2MS44MTI1MzcgMGMzMS43ODEwOTkgMCA1Ny41NDc5ODItMjUuNzY2ODUgNTcuNTQ3OTgyLTU3LjU0NTYyNEw4OTkuOTQyNTc3IDYyNy4wOTMyOTV6Ii8+PC9zdmc+" parent="1" vertex="1">
          <mxGeometry x="185.48000000000002" y="2466.23" width="144.04" height="144.04" as="geometry" />
        </mxCell>
        <mxCell id="taJE9zPfQFt8-4Tq1CJN-5" value="" style="rounded=1;whiteSpace=wrap;html=1;strokeColor=#4D4D4D;fillColor=none;strokeWidth=5;dashed=1;" parent="1" vertex="1">
          <mxGeometry x="109" y="2680" width="297" height="240.77" as="geometry" />
        </mxCell>
        <mxCell id="taJE9zPfQFt8-4Tq1CJN-10" value="" style="shape=image;verticalLabelPosition=bottom;verticalAlign=top;imageAspect=0;image=data:image/svg+xml,PHN2ZyB4bWxuczp4bGluaz0iaHR0cDovL3d3dy53My5vcmcvMTk5OS94bGluayIgeG1sbnM9Imh0dHA6Ly93d3cudzMub3JnLzIwMDAvc3ZnIiBoZWlnaHQ9IjIwMCIgd2lkdGg9IjIwMCIgdmVyc2lvbj0iMS4xIiB2aWV3Qm94PSIwIDAgMTAyNCAxMDI0IiBjbGFzcz0iaWNvbiI+PGRlZnM+PHN0eWxlIHR5cGU9InRleHQvY3NzIj5AZm9udC1mYWNlIHsgZm9udC1mYW1pbHk6IGZlZWRiYWNrLWljb25mb250OyBzcmM6IHVybCgiLy9hdC5hbGljZG4uY29tL3QvZm9udF8xMDMxMTU4X3U2OXc4eWh4ZHUud29mZjI/dD0xNjMwMDMzNzU5OTQ0IikgZm9ybWF0KCJ3b2ZmMiIpLCB1cmwoIi8vYXQuYWxpY2RuLmNvbS90L2ZvbnRfMTAzMTE1OF91Njl3OHloeGR1LndvZmY/dD0xNjMwMDMzNzU5OTQ0IikgZm9ybWF0KCJ3b2ZmIiksIHVybCgiLy9hdC5hbGljZG4uY29tL3QvZm9udF8xMDMxMTU4X3U2OXc4eWh4ZHUudHRmP3Q9MTYzMDAzMzc1OTk0NCIpIGZvcm1hdCgidHJ1ZXR5cGUiKTsgfSYjeGE7PC9zdHlsZT48L2RlZnM+PHBhdGggZmlsbD0iIzRBOTE5QiIgZD0iTTAgNzI4djEzNmMwIDM1LjMgMjguNyA2NCA2NCA2NGg4OTZjMzUuMyAwIDY0LTI4LjcgNjQtNjRWNzI4YzAtNC40LTMuNi04LTgtOEg4Yy00LjQgMC04IDMuNi04IDh6IG03NzQgOTZjMCA0LjQtMy42IDgtOCA4SDQyNGMtNC40IDAtOC0zLjYtOC04di00OGMwLTQuNCAzLjYtOCA4LThoMzQyYzQuNCAwIDggMy42IDggOHY0OHogbTEyMiAwYzAgNC40LTMuNiA4LTggOGgtNDhjLTQuNCAwLTgtMy42LTgtOHYtNDhjMC00LjQgMy42LTggOC04aDQ4YzQuNCAwIDggMy42IDggOHY0OHpNMCA1MzZ2MTQ0YzAgNC40IDMuNiA4IDggOGgxMDA4YzQuNCAwIDgtMy42IDgtOFY1MzZjMC00LjQtMy42LTgtOC04SDhjLTQuNCAwLTggMy42LTggOHogbTc3NCA5NmMwIDQuNC0zLjYgOC04IDhINDI0Yy00LjQgMC04LTMuNi04LTh2LTQ4YzAtNC40IDMuNi04IDgtOGgzNDJjNC40IDAgOCAzLjYgOCA4djQ4eiBtMTIyIDBjMCA0LjQtMy42IDgtOCA4aC00OGMtNC40IDAtOC0zLjYtOC04di00OGMwLTQuNCAzLjYtOCA4LThoNDhjNC40IDAgOCAzLjYgOCA4djQ4ek0wIDM0NHYxNDRjMCA0LjQgMy42IDggOCA4aDEwMDhjNC40IDAgOC0zLjYgOC04VjM0NGMwLTQuNC0zLjYtOC04LThIOGMtNC40IDAtOCAzLjYtOCA4eiBtNzc0IDk2YzAgNC40LTMuNiA4LTggOEg0MjRjLTQuNCAwLTgtMy42LTgtOHYtNDhjMC00LjQgMy42LTggOC04aDM0MmM0LjQgMCA4IDMuNiA4IDh2NDh6IG0xMjIgMGMwIDQuNC0zLjYgOC04IDhoLTQ4Yy00LjQgMC04LTMuNi04LTh2LTQ4YzAtNC40IDMuNi04IDgtOGg0OGM0LjQgMCA4IDMuNiA4IDh2NDh6TTk2MCA5Nkg2NGMtMzUuMyAwLTY0IDI4LjctNjQgNjR2MTM2YzAgNC40IDMuNiA4IDggOGgxMDA4YzQuNCAwIDgtMy42IDgtOFYxNjBjMC0zNS4zLTI4LjctNjQtNjQtNjR6TTc3NCAyNDhjMCA0LjQtMy42IDgtOCA4SDQyNGMtNC40IDAtOC0zLjYtOC04di00OGMwLTQuNCAzLjYtOCA4LThoMzQyYzQuNCAwIDggMy42IDggOHY0OHogbTEyMiAwYzAgNC40LTMuNiA4LTggOGgtNDhjLTQuNCAwLTgtMy42LTgtOHYtNDhjMC00LjQgMy42LTggOC04aDQ4YzQuNCAwIDggMy42IDggOHY0OHoiLz48L3N2Zz4=;strokeWidth=5;fontSize=35;fontColor=#FFFFFF;fillColor=#4A919B;" parent="1" vertex="1">
          <mxGeometry x="1062.25" y="2459" width="158.5" height="158.5" as="geometry" />
        </mxCell>
        <mxCell id="-Y7dOtZ6irdYKoeQyIZG-25" style="edgeStyle=orthogonalEdgeStyle;rounded=1;orthogonalLoop=1;jettySize=auto;html=1;exitX=1;exitY=0.5;exitDx=0;exitDy=0;entryX=0;entryY=0.5;entryDx=0;entryDy=0;strokeWidth=5;dashed=1;strokeColor=#003F6A;" parent="1" source="-Y7dOtZ6irdYKoeQyIZG-1" target="-Y7dOtZ6irdYKoeQyIZG-16" edge="1">
          <mxGeometry relative="1" as="geometry" />
        </mxCell>
        <mxCell id="-Y7dOtZ6irdYKoeQyIZG-1" value="&lt;font style=&quot;font-size: 31px;&quot; color=&quot;#ffffff&quot;&gt;port1&lt;/font&gt;" style="rounded=1;whiteSpace=wrap;html=1;strokeColor=none;fillColor=#003F6A;" parent="1" vertex="1">
          <mxGeometry x="271.5" y="2702.39" width="93" height="88" as="geometry" />
        </mxCell>
        <mxCell id="-Y7dOtZ6irdYKoeQyIZG-27" style="edgeStyle=orthogonalEdgeStyle;rounded=1;orthogonalLoop=1;jettySize=auto;html=1;exitX=1;exitY=0.5;exitDx=0;exitDy=0;strokeWidth=5;dashed=1;strokeColor=#66C6C4;" parent="1" source="-Y7dOtZ6irdYKoeQyIZG-2" target="-Y7dOtZ6irdYKoeQyIZG-23" edge="1">
          <mxGeometry relative="1" as="geometry" />
        </mxCell>
        <mxCell id="-Y7dOtZ6irdYKoeQyIZG-2" value="&lt;font style=&quot;font-size: 31px;&quot; color=&quot;#ffffff&quot;&gt;port3&lt;/font&gt;" style="rounded=1;whiteSpace=wrap;html=1;strokeColor=none;fillColor=#66C6C4;" parent="1" vertex="1">
          <mxGeometry x="271.5" y="2808.39" width="93" height="88" as="geometry" />
        </mxCell>
        <mxCell id="-Y7dOtZ6irdYKoeQyIZG-3" value="&lt;font style=&quot;font-size: 31px;&quot; color=&quot;#ffffff&quot;&gt;port0&lt;/font&gt;" style="rounded=1;whiteSpace=wrap;html=1;strokeColor=none;fillColor=#1E699E;" parent="1" vertex="1">
          <mxGeometry x="150.5" y="2702.39" width="93" height="88" as="geometry" />
        </mxCell>
        <mxCell id="-Y7dOtZ6irdYKoeQyIZG-4" value="&lt;font style=&quot;font-size: 31px;&quot; color=&quot;#ffffff&quot;&gt;port2&lt;/font&gt;" style="rounded=1;whiteSpace=wrap;html=1;strokeColor=none;fillColor=#418BB3;" parent="1" vertex="1">
          <mxGeometry x="150.5" y="2808.39" width="93" height="88" as="geometry" />
        </mxCell>
        <mxCell id="-Y7dOtZ6irdYKoeQyIZG-10" value="" style="rounded=1;whiteSpace=wrap;html=1;strokeColor=#4D4D4D;fillColor=none;strokeWidth=5;dashed=1;" parent="1" vertex="1">
          <mxGeometry x="993" y="2680" width="297" height="240.77" as="geometry" />
        </mxCell>
        <mxCell id="-Y7dOtZ6irdYKoeQyIZG-11" value="&lt;font style=&quot;font-size: 31px;&quot; color=&quot;#ffffff&quot;&gt;port5&lt;/font&gt;" style="rounded=1;whiteSpace=wrap;html=1;strokeColor=none;fillColor=#1E699E;" parent="1" vertex="1">
          <mxGeometry x="1155.5" y="2702.39" width="93" height="88" as="geometry" />
        </mxCell>
        <mxCell id="-Y7dOtZ6irdYKoeQyIZG-12" value="&lt;font style=&quot;font-size: 31px;&quot; color=&quot;#ffffff&quot;&gt;port7&lt;/font&gt;" style="rounded=1;whiteSpace=wrap;html=1;strokeColor=none;fillColor=#418BB3;" parent="1" vertex="1">
          <mxGeometry x="1155.5" y="2808.39" width="93" height="88" as="geometry" />
        </mxCell>
        <mxCell id="-Y7dOtZ6irdYKoeQyIZG-13" value="&lt;font style=&quot;font-size: 31px;&quot; color=&quot;#ffffff&quot;&gt;port4&lt;/font&gt;" style="rounded=1;whiteSpace=wrap;html=1;strokeColor=none;fillColor=#003F6A;" parent="1" vertex="1">
          <mxGeometry x="1034.5" y="2702.39" width="93" height="88" as="geometry" />
        </mxCell>
        <mxCell id="-Y7dOtZ6irdYKoeQyIZG-14" value="&lt;font style=&quot;font-size: 31px;&quot; color=&quot;#ffffff&quot;&gt;port6&lt;/font&gt;" style="rounded=1;whiteSpace=wrap;html=1;strokeColor=none;fillColor=#66C6C4;" parent="1" vertex="1">
          <mxGeometry x="1034.5" y="2808.39" width="93" height="88" as="geometry" />
        </mxCell>
        <mxCell id="-Y7dOtZ6irdYKoeQyIZG-26" style="edgeStyle=orthogonalEdgeStyle;rounded=1;orthogonalLoop=1;jettySize=auto;html=1;exitX=1;exitY=0.5;exitDx=0;exitDy=0;entryX=0;entryY=0.5;entryDx=0;entryDy=0;strokeWidth=5;dashed=1;strokeColor=#003F6A;" parent="1" source="-Y7dOtZ6irdYKoeQyIZG-16" target="-Y7dOtZ6irdYKoeQyIZG-13" edge="1">
          <mxGeometry relative="1" as="geometry" />
        </mxCell>
        <mxCell id="-Y7dOtZ6irdYKoeQyIZG-16" value="&lt;font color=&quot;#ffffff&quot;&gt;&lt;span style=&quot;font-size: 38px;&quot;&gt;队列1&lt;/span&gt;&lt;/font&gt;" style="rounded=1;whiteSpace=wrap;html=1;strokeColor=none;fillColor=#003f6a;arcSize=28;" parent="1" vertex="1">
          <mxGeometry x="534" y="2656" width="330.67" height="64" as="geometry" />
        </mxCell>
        <mxCell id="-Y7dOtZ6irdYKoeQyIZG-20" value="" style="fontColor=#0066CC;verticalAlign=top;verticalLabelPosition=bottom;labelPosition=center;align=center;html=1;outlineConnect=0;gradientColor=none;gradientDirection=north;strokeWidth=2;shape=mxgraph.networks.router;fillColor=#4A919B;fontSize=30;" parent="1" vertex="1">
          <mxGeometry x="604.34" y="2538" width="190" height="57" as="geometry" />
        </mxCell>
        <mxCell id="-Y7dOtZ6irdYKoeQyIZG-21" value="&lt;font color=&quot;#ffffff&quot;&gt;&lt;span style=&quot;font-size: 38px;&quot;&gt;队列2&lt;/span&gt;&lt;/font&gt;" style="rounded=1;whiteSpace=wrap;html=1;strokeColor=none;fillColor=#1E699E;arcSize=28;" parent="1" vertex="1">
          <mxGeometry x="534" y="2730" width="330.67" height="64" as="geometry" />
        </mxCell>
        <mxCell id="-Y7dOtZ6irdYKoeQyIZG-22" value="&lt;font color=&quot;#ffffff&quot;&gt;&lt;span style=&quot;font-size: 38px;&quot;&gt;队列3&lt;/span&gt;&lt;/font&gt;" style="rounded=1;whiteSpace=wrap;html=1;strokeColor=none;fillColor=#418BB3;arcSize=28;" parent="1" vertex="1">
          <mxGeometry x="534" y="2804" width="330.67" height="64" as="geometry" />
        </mxCell>
        <mxCell id="-Y7dOtZ6irdYKoeQyIZG-28" style="edgeStyle=orthogonalEdgeStyle;rounded=1;orthogonalLoop=1;jettySize=auto;html=1;exitX=1;exitY=0.5;exitDx=0;exitDy=0;entryX=0;entryY=0.5;entryDx=0;entryDy=0;strokeWidth=5;dashed=1;strokeColor=#66C6C4;" parent="1" source="-Y7dOtZ6irdYKoeQyIZG-23" target="-Y7dOtZ6irdYKoeQyIZG-14" edge="1">
          <mxGeometry relative="1" as="geometry" />
        </mxCell>
        <mxCell id="-Y7dOtZ6irdYKoeQyIZG-23" value="&lt;font color=&quot;#ffffff&quot;&gt;&lt;span style=&quot;font-size: 38px;&quot;&gt;队列4&lt;/span&gt;&lt;/font&gt;" style="rounded=1;whiteSpace=wrap;html=1;strokeColor=none;fillColor=#66C6C4;arcSize=28;" parent="1" vertex="1">
          <mxGeometry x="534" y="2878" width="330.67" height="64" as="geometry" />
        </mxCell>
      </root>
    </mxGraphModel>
  </diagram>
</mxfile>
